HIERARCHY
ROOT joint_Root
{
	OFFSET 0.0 0.0 0.0
	CHANNELS 6 Xposition Yposition Zposition Zrotation Xrotation Yrotation 
	JOINT Hips
	{
		OFFSET 4.5925 91.4895 -427.239
		CHANNELS 6 Xposition Yposition Zposition Zrotation Xrotation Yrotation 
		JOINT Spine
		{
			OFFSET 15.7357 0.0 0.0
			CHANNELS 6 Xposition Yposition Zposition Zrotation Xrotation Yrotation 
			JOINT Chest
			{
				OFFSET 8.98455 -0.406207 0.0
				CHANNELS 6 Xposition Yposition Zposition Zrotation Xrotation Yrotation 
				JOINT Neck
				{
					OFFSET 16.3773 0.0 0.0
					CHANNELS 6 Xposition Yposition Zposition Zrotation Xrotation Yrotation 
					JOINT Head
					{
						OFFSET 6.45672 0.0 0.0
						CHANNELS 6 Xposition Yposition Zposition Zrotation Xrotation Yrotation 
						End Site
						{
							OFFSET 0.0 0.0 0.0
						}
					}
				}
				JOINT Shoulder_L
				{
					OFFSET 12.9942 -0.242716 4.98039
					CHANNELS 6 Xposition Yposition Zposition Zrotation Xrotation Yrotation 
					JOINT UpperArm_L
					{
						OFFSET 5.34809 0.0 0.0
						CHANNELS 6 Xposition Yposition Zposition Zrotation Xrotation Yrotation 
						JOINT LowerArm_L
						{
							OFFSET 24.3286 1.87007e-05 0.0
							CHANNELS 6 Xposition Yposition Zposition Zrotation Xrotation Yrotation 
							JOINT Hand_L
							{
								OFFSET 22.2916 0.0 0.0
								CHANNELS 6 Xposition Yposition Zposition Zrotation Xrotation Yrotation 
								End Site
								{
									OFFSET 0.0 0.0 0.0
								}
							}
						}
					}
				}
				JOINT Shoulder_R
				{
					OFFSET 12.9945 -0.242716 -4.98039
					CHANNELS 6 Xposition Yposition Zposition Zrotation Xrotation Yrotation 
					JOINT UpperArm_R
					{
						OFFSET -5.34813 0.0 0.0
						CHANNELS 6 Xposition Yposition Zposition Zrotation Xrotation Yrotation 
						JOINT LowerArm_R
						{
							OFFSET -24.3289 0.000322201 0.0
							CHANNELS 6 Xposition Yposition Zposition Zrotation Xrotation Yrotation 
							JOINT Hand_R
							{
								OFFSET -22.2915 -0.000108084 0.0
								CHANNELS 6 Xposition Yposition Zposition Zrotation Xrotation Yrotation 
								End Site
								{
									OFFSET 0.0 0.0 0.0
								}
							}
						}
					}
				}
			}
		}
		JOINT UpperLeg_L
		{
			OFFSET -2.19248 -6.46944 0.0
			CHANNELS 6 Xposition Yposition Zposition Zrotation Xrotation Yrotation 
			JOINT LowerLeg_L
			{
				OFFSET 39.0811 0.0 -1.23785e-05
				CHANNELS 6 Xposition Yposition Zposition Zrotation Xrotation Yrotation 
				JOINT Foot_L
				{
					OFFSET 40.9854 0.0 -1.26872e-05
					CHANNELS 6 Xposition Yposition Zposition Zrotation Xrotation Yrotation 
					JOINT Toes_L
					{
						OFFSET 11.7543 0.0 0.0
						CHANNELS 6 Xposition Yposition Zposition Zrotation Xrotation Yrotation 
						End Site
						{
							OFFSET 0.0 0.0 0.0
						}
					}
				}
			}
		}
		JOINT UpperLeg_R
		{
			OFFSET -2.19251 6.46944 0.0
			CHANNELS 6 Xposition Yposition Zposition Zrotation Xrotation Yrotation 
			JOINT LowerLeg_R
			{
				OFFSET -39.0811 -0.00228153 -0.0401928
				CHANNELS 6 Xposition Yposition Zposition Zrotation Xrotation Yrotation 
				JOINT Foot_R
				{
					OFFSET -40.9854 0.0 0.0
					CHANNELS 6 Xposition Yposition Zposition Zrotation Xrotation Yrotation 
					JOINT Toes_R
					{
						OFFSET -11.7543 0.0 0.0
						CHANNELS 6 Xposition Yposition Zposition Zrotation Xrotation Yrotation 
						End Site
						{
							OFFSET 0.0 0.0 0.0
						}
					}
				}
			}
		}
	}
}
MOTION
Frames:	4
Frame Time:	0.0333333
0.000000 0.000000 0.000000 0.000000 0.000000 -0.000000 -2.621430 90.594000 2.015560 90.039500 -3.319010 10.921600 15.735700 0.000005 -0.000001 87.824300 83.250700 -87.789600 8.984550 -0.406207 -0.000000 5.723120 -0.511801 0.095078 16.377300 -0.000001 -0.000001 4.398820 -4.215470 2.038120 6.456720 -0.000001 -0.000000 -1.333760 -4.411950 -0.632395 12.994200 -0.242716 4.980390 -91.133300 4.172010 -74.787600 5.348090 -0.000007 -0.000001 -67.531300 33.340300 -13.114300 24.328600 0.000019 0.000005 8.772220 23.125100 -21.450200 22.291600 -0.000001 0.000005 6.723460 5.257030 1.246270 12.994500 -0.242716 -4.980390 88.756000 9.211890 -82.274900 -5.348130 -0.000001 -0.000004 -68.022500 23.396700 -6.647710 -24.328900 0.000322 -0.000009 1.706150 4.871500 -19.339600 -22.291500 -0.000108 -0.000004 13.775900 5.374400 -2.123230 -2.192480 -6.469440 -0.000000 -172.951000 -13.270300 3.001250 39.081100 -0.000007 -0.000012 -0.238126 0.413447 29.940400 40.985400 -0.000006 -0.000013 -1.615440 4.957800 -71.199100 11.754300 -0.000000 0.000003 -0.000151 -0.001459 -16.633000 -2.192510 6.469440 -0.000001 172.808000 22.842700 -175.316000 -39.081100 -0.002282 -0.040193 -0.229159 0.404713 29.872700 -40.985400 0.000008 0.000006 4.251540 13.654800 -73.011900 -11.754300 -0.000006 -0.000006 -0.002380 -0.033372 -17.930200
0.000000 0.000000 0.000000 0.000000 0.000000 -0.000000 -2.608870 90.585500 2.005490 90.036100 -3.400440 10.989700 15.735700 0.000005 -0.000001 87.512100 83.133600 -87.440600 8.984550 -0.406207 -0.000000 5.954470 -0.595672 0.173747 16.377300 -0.000001 -0.000001 4.541220 -4.117690 1.966320 6.456720 -0.000001 -0.000000 -1.038760 -4.306760 -0.567712 12.994200 -0.242716 4.980390 -91.227200 4.357000 -74.253000 5.348090 -0.000007 -0.000001 -67.292400 29.579100 -13.142700 24.328600 0.000019 0.000005 9.349850 24.317500 -21.793200 22.291600 -0.000001 0.000005 5.792740 5.257310 1.238990 12.994500 -0.242716 -4.980390 88.692900 9.208750 -81.885800 -5.348130 -0.000001 -0.000004 -67.325400 18.992600 -6.758840 -24.328900 0.000322 -0.000009 1.591420 4.269970 -20.475400 -22.291500 -0.000108 -0.000004 14.383500 5.367640 -1.913770 -2.192480 -6.469440 -0.000000 -172.933000 -13.308700 3.044590 39.081100 -0.000007 -0.000012 -0.239721 0.415307 29.994600 40.985400 -0.000006 -0.000013 -1.615280 4.920350 -71.222400 11.754300 -0.000000 0.000003 -0.000152 -0.001471 -16.633400 -2.192510 6.469440 -0.000001 172.803000 22.747300 -175.295000 -39.081100 -0.002282 -0.040193 -0.228891 0.403358 29.927200 -40.985400 0.000008 0.000006 4.247290 13.639600 -73.024100 -11.754300 -0.000006 -0.000006 -0.002109 -0.030070 -17.795800
0.000000 0.000000 0.000000 0.000000 0.000000 -0.000000 -2.594510 90.589000 1.985580 90.034200 -3.551230 10.973100 15.735700 0.000005 -0.000001 87.495900 83.110200 -87.389000 8.984550 -0.406207 -0.000000 6.001240 -0.602083 0.245039 16.377300 -0.000001 -0.000001 5.045000 -4.084910 1.964840 6.456720 -0.000001 -0.000000 -0.724616 -4.248500 -0.623735 12.994200 -0.242716 4.980390 -91.308600 4.499640 -73.765800 5.348090 -0.000007 -0.000001 -66.797100 24.679800 -13.135700 24.328600 0.000019 0.000005 10.003900 25.091600 -22.585500 22.291600 -0.000001 0.000005 5.097400 5.238430 1.737070 12.994500 -0.242716 -4.980390 88.638100 9.068750 -81.422500 -5.348130 -0.000001 -0.000004 -66.139300 14.476900 -6.997450 -24.328900 0.000322 -0.000009 1.601150 3.911940 -22.293600 -22.291500 -0.000108 -0.000004 14.883000 5.355260 -1.536330 -2.192480 -6.469440 -0.000000 -172.922000 -13.425500 3.053300 39.081100 -0.000007 -0.000012 -0.239194 0.414651 29.979200 40.985400 -0.000006 -0.000013 -1.614820 4.886890 -71.219700 11.754300 -0.000000 0.000003 -0.000157 -0.001511 -16.634900 -2.192510 6.469440 -0.000001 172.859000 22.597500 -175.379000 -39.081100 -0.002282 -0.040193 -0.230732 0.406319 29.941700 -40.985400 0.000008 0.000006 4.235830 13.606300 -72.992100 -11.754300 -0.000006 -0.000006 -0.002290 -0.032287 -17.886000
0.000000 0.000000 0.000000 0.000000 0.000000 -0.000000 -2.574640 90.590100 1.971400 90.042600 -3.678430 10.985300 15.735700 0.000005 -0.000001 87.423400 83.130800 -87.286800 8.984550 -0.406207 -0.000000 5.959540 -0.618125 0.305156 16.377300 -0.000001 -0.000001 5.742700 -4.072730 2.023140 6.456720 -0.000001 -0.000000 -0.194390 -4.224280 -0.822060 12.994200 -0.242716 4.980390 -91.393500 4.675640 -73.383400 5.348090 -0.000007 -0.000001 -65.418600 19.630100 -13.527300 24.328600 0.000019 0.000005 10.529600 25.089900 -23.669600 22.291600 -0.000001 0.000005 4.438620 5.213410 2.381850 12.994500 -0.242716 -4.980390 88.594100 8.878350 -80.964200 -5.348130 -0.000001 -0.000004 -64.203300 10.413900 -7.547830 -24.328900 0.000322 -0.000009 1.737420 3.795150 -24.633800 -22.291500 -0.000108 -0.000004 15.696600 5.344970 -1.227470 -2.192480 -6.469440 -0.000000 -172.937000 -13.460500 3.086310 39.081100 -0.000007 -0.000012 -0.239650 0.415672 29.965400 40.985400 -0.000006 -0.000013 -1.623700 4.816170 -71.223700 11.754300 -0.000000 0.000003 -0.000153 -0.001478 -16.633700 -2.192510 6.469440 -0.000001 172.829000 22.557100 -175.392000 -39.081100 -0.002282 -0.040193 -0.231045 0.406632 29.955600 -40.985400 0.000008 0.000006 4.256140 13.723600 -72.988100 -11.754300 -0.000006 -0.000006 -0.002305 -0.032472 -17.893500
